<?xml version="1.0" encoding="UTF-8" standalone="no"?>
<svg
   xmlns:dc="http://purl.org/dc/elements/1.1/"
   xmlns:cc="http://creativecommons.org/ns#"
   xmlns:rdf="http://www.w3.org/1999/02/22-rdf-syntax-ns#"
   xmlns:svg="http://www.w3.org/2000/svg"
   xmlns="http://www.w3.org/2000/svg"
   xmlns:xlink="http://www.w3.org/1999/xlink"
   xmlns:sodipodi="http://sodipodi.sourceforge.net/DTD/sodipodi-0.dtd"
   xmlns:inkscape="http://www.inkscape.org/namespaces/inkscape"
   sodipodi:docname="fig1.svg"
   inkscape:version="1.0 (4035a4fb49, 2020-05-01)"
   id="svg8"
   version="1.1"
   viewBox="0 0 200 104"
   height="10.4cm"
   width="20cm">
  <defs
     id="defs2">
    <rect
       id="rect3302"
       height="41.538551"
       width="83.07711"
       y="-15.990014"
       x="-13.861946" />
    <rect
       id="rect3267"
       height="67.377899"
       width="157.49583"
       y="375.16513"
       x="71.867386" />
    <rect
       id="rect3240"
       height="9.1059418"
       width="17.967375"
       y="81.828217"
       x="30.554783" />
    <style
       type="text/css"
       id="style835">*{stroke-linecap:butt;stroke-linejoin:round;}</style>
    <path
       d="M 3841,3500 2234,1784 3219,0 H 2559 L 1819,1388 531,0 H -166 L 1556,1844 641,3500 h 659 l 672,-1266 1172,1266 z"
       id="DejaVuSans-Oblique-78"
       transform="scale(0.015625)" />
    <path
       d="M 5747,2113 5338,0 h -575 l 403,2094 q 25,134 37,231 13,97 13,166 0,281 -157,437 -156,156 -437,156 -419,0 -747,-314 -328,-314 -425,-817 L 3066,0 h -575 l 409,2094 q 25,115 37,213 13,99 13,177 0,285 -156,442 -156,158 -431,158 -425,0 -754,-314 -328,-314 -425,-817 L 800,0 H 225 l 684,3500 h 575 l -109,-544 q 234,307 548,467 315,161 674,161 381,0 626,-200 246,-200 296,-556 262,369 607,562 346,194 730,194 450,0 695,-259 246,-259 246,-734 0,-103 -13,-227 -12,-123 -37,-251 z"
       id="DejaVuSans-Oblique-6d"
       transform="scale(0.015625)" />
    <path
       d="m 428,1388 410,2112 h 578 L 1006,1409 q -31,-153 -45,-262 -14,-109 -14,-181 0,-266 162,-412 163,-145 460,-145 462,0 799,312 338,313 441,842 l 385,1937 h 575 L 3091,0 h -575 l 115,550 Q 2388,244 2052,76 1716,-91 1338,-91 878,-91 622,161 366,413 366,863 q 0,93 15,234 16,141 47,291 z"
       id="DejaVuSans-Oblique-75"
       transform="scale(0.015625)" />
    <path
       d="m 1984,4856 q -418,-718 -622,-1422 -203,-703 -203,-1425 0,-721 205,-1429 205,-708 620,-1424 h -500 q -468,735 -701,1444 -233,709 -233,1409 0,697 231,1403 232,707 703,1444 z"
       id="DejaVuSans-28"
       transform="scale(0.015625)" />
    <path
       d="m 513,4856 h 500 q 468,-737 701,-1444 233,-706 233,-1403 0,-700 -233,-1409 -233,-709 -701,-1444 H 513 q 415,716 620,1424 205,708 205,1429 0,722 -205,1425 -205,704 -620,1422 z"
       id="DejaVuSans-29"
       transform="scale(0.015625)" />
    <path
       d="m 628,4666 h 941 L 2759,1491 3956,4666 h 941 V 0 H 4281 V 4097 L 3078,897 H 2444 L 1241,4097 V 0 H 628 Z"
       id="DejaVuSans-4d"
       transform="scale(0.015625)" />
    <path
       d="m 2194,1759 q -697,0 -966,-159 -269,-159 -269,-544 0,-306 202,-486 202,-179 548,-179 479,0 768,339 289,339 289,901 v 128 z m 1147,238 V 0 H 2766 V 531 Q 2569,213 2275,61 1981,-91 1556,-91 q -537,0 -855,302 -317,302 -317,808 0,590 395,890 396,300 1180,300 h 807 v 57 q 0,397 -261,614 -261,217 -733,217 -300,0 -585,-72 -284,-72 -546,-216 v 532 q 315,122 612,182 297,61 578,61 760,0 1135,-394 375,-393 375,-1193 z"
       id="DejaVuSans-61"
       transform="scale(0.015625)" />
    <path
       d="m 2631,2963 q -97,56 -211,82 -114,27 -251,27 -488,0 -749,-317 -261,-317 -261,-911 V 0 H 581 v 3500 h 578 v -544 q 182,319 472,473 291,155 707,155 59,0 131,-8 72,-7 159,-23 z"
       id="DejaVuSans-72"
       transform="scale(0.015625)" />
    <path
       d="m 2906,1791 q 0,625 -258,968 -257,344 -723,344 -462,0 -720,-344 -258,-343 -258,-968 0,-622 258,-966 258,-344 720,-344 466,0 723,344 258,344 258,966 z M 3481,434 q 0,-893 -397,-1329 -396,-436 -1215,-436 -303,0 -572,45 -269,45 -522,139 v 559 q 253,-137 500,-202 247,-66 503,-66 566,0 847,295 281,295 281,892 V 616 Q 2728,306 2450,153 2172,0 1784,0 1141,0 747,490 353,981 353,1791 q 0,812 394,1302 394,491 1037,491 388,0 666,-153 278,-153 456,-462 v 531 h 575 z"
       id="DejaVuSans-67"
       transform="scale(0.015625)" />
    <path
       d="m 603,3500 h 575 V 0 H 603 Z m 0,1363 h 575 V 4134 H 603 Z"
       id="DejaVuSans-69"
       transform="scale(0.015625)" />
    <path
       d="M 3513,2113 V 0 h -575 v 2094 q 0,497 -194,743 -194,247 -581,247 -466,0 -735,-297 -269,-296 -269,-809 V 0 H 581 v 3500 h 578 v -544 q 207,316 486,472 280,156 646,156 603,0 912,-373 310,-373 310,-1098 z"
       id="DejaVuSans-6e"
       transform="scale(0.015625)" />
    <path
       d="m 603,4863 h 575 V 0 H 603 Z"
       id="DejaVuSans-6c"
       transform="scale(0.015625)" />
    <path
       d=""
       id="DejaVuSans-20"
       transform="scale(0.015625)" />
    <path
       d="m 556,4666 h 635 V 1831 q 0,-750 271,-1080 272,-329 882,-329 606,0 878,329 272,330 272,1080 v 2835 h 634 V 1753 Q 4128,841 3676,375 3225,-91 2344,-91 1459,-91 1007,375 556,841 556,1753 Z"
       id="DejaVuSans-55"
       transform="scale(0.015625)" />
    <path
       d="M 1172,4494 V 3500 H 2356 V 3053 H 1172 V 1153 q 0,-428 117,-550 117,-122 477,-122 h 590 V 0 H 1766 Q 1100,0 847,248 594,497 594,1153 V 3053 H 172 v 447 h 422 v 994 z"
       id="DejaVuSans-74"
       transform="scale(0.015625)" />
    <path
       d="m 2059,-325 q -243,-625 -475,-815 -231,-191 -618,-191 H 506 v 481 h 338 q 237,0 368,113 132,112 291,531 L 1606,56 191,3500 H 800 L 1894,763 2988,3500 h 609 z"
       id="DejaVuSans-79"
       transform="scale(0.015625)" />
    <path
       d="m 213,4666 h 637 l 981,-3944 978,3944 h 710 l 981,-3944 978,3944 h 641 L 4947,0 H 4153 L 3169,4050 2175,0 h -794 z"
       id="DejaVuSans-57"
       transform="scale(0.015625)" />
    <path
       d="M 3597,1894 V 1613 H 953 q 38,-594 358,-905 320,-311 892,-311 331,0 642,81 311,81 618,244 V 178 Q 3153,47 2828,-22 2503,-91 2169,-91 1331,-91 842,396 353,884 353,1716 q 0,859 464,1363 464,505 1252,505 706,0 1117,-455 411,-454 411,-1235 z m -575,169 q -6,471 -264,752 -258,282 -683,282 -481,0 -770,-272 -289,-272 -333,-766 z"
       id="DejaVuSans-65"
       transform="scale(0.015625)" />
    <path
       d="M 1259,4147 V 519 h 763 q 966,0 1414,437 448,438 448,1382 0,937 -448,1373 -448,436 -1414,436 z m -631,519 h 1297 q 1356,0 1990,-564 635,-564 635,-1764 Q 4550,1131 3912,565 3275,0 1925,0 H 628 Z"
       id="DejaVuSans-44"
       transform="scale(0.015625)" />
    <path
       d="m 3328,2828 q 216,388 516,572 300,184 706,184 547,0 844,-383 297,-382 297,-1088 V 0 h -578 v 2094 q 0,503 -179,746 -178,244 -543,244 -447,0 -707,-297 -259,-296 -259,-809 V 0 h -578 v 2094 q 0,506 -178,748 -178,242 -550,242 -441,0 -701,-298 -259,-298 -259,-808 V 0 H 581 v 3500 h 578 v -544 q 197,322 472,475 275,153 653,153 382,0 649,-194 267,-193 395,-562 z"
       id="DejaVuSans-6d"
       transform="scale(0.015625)" />
    <path
       d="m 1959,3097 q -462,0 -731,-361 -269,-361 -269,-989 0,-628 267,-989 268,-361 733,-361 460,0 728,362 269,363 269,988 0,622 -269,986 -268,364 -728,364 z m 0,487 q 750,0 1178,-488 429,-487 429,-1349 Q 3566,888 3137,398 2709,-91 1959,-91 1206,-91 779,398 353,888 353,1747 q 0,862 426,1349 427,488 1180,488 z"
       id="DejaVuSans-6f"
       transform="scale(0.015625)" />
    <path
       d="m 2906,2969 v 1894 h 575 V 0 H 2906 V 525 Q 2725,213 2448,61 2172,-91 1784,-91 1150,-91 751,415 353,922 353,1747 q 0,825 398,1331 399,506 1033,506 388,0 664,-152 277,-151 458,-463 z M 947,1747 q 0,-634 261,-995 261,-361 717,-361 456,0 718,361 263,361 263,995 0,634 -263,995 -262,361 -718,361 -456,0 -717,-361 -261,-361 -261,-995 z"
       id="DejaVuSans-64"
       transform="scale(0.015625)" />
    <clipPath
       id="p6fd168179c">
      <rect
         height="207.89999"
         width="217.62"
         x="35.099998"
         y="32.400002"
         id="rect988" />
    </clipPath>
    <style
       type="text/css"
       id="style1427">*{stroke-linecap:butt;stroke-linejoin:round;}</style>
    <path
       d="M 3841,3500 2234,1784 3219,0 H 2559 L 1819,1388 531,0 H -166 L 1556,1844 641,3500 h 659 l 672,-1266 1172,1266 z"
       id="DejaVuSans-Oblique-78-8"
       transform="scale(0.015625)" />
    <path
       d="m 428,1388 410,2112 h 578 L 1006,1409 q -31,-153 -45,-262 -14,-109 -14,-181 0,-266 162,-412 163,-145 460,-145 462,0 799,312 338,313 441,842 l 385,1937 h 575 L 3091,0 h -575 l 115,550 Q 2388,244 2052,76 1716,-91 1338,-91 878,-91 622,161 366,413 366,863 q 0,93 15,234 16,141 47,291 z"
       id="DejaVuSans-Oblique-75-3"
       transform="scale(0.015625)" />
    <path
       d="m 1984,4856 q -418,-718 -622,-1422 -203,-703 -203,-1425 0,-721 205,-1429 205,-708 620,-1424 h -500 q -468,735 -701,1444 -233,709 -233,1409 0,697 231,1403 232,707 703,1444 z"
       id="DejaVuSans-28-7"
       transform="scale(0.015625)" />
    <path
       d="m 513,4856 h 500 q 468,-737 701,-1444 233,-706 233,-1403 0,-700 -233,-1409 -233,-709 -701,-1444 H 513 q 415,716 620,1424 205,708 205,1429 0,722 -205,1425 -205,704 -620,1422 z"
       id="DejaVuSans-29-3"
       transform="scale(0.015625)" />
    <path
       d="m 213,4666 h 637 l 981,-3944 978,3944 h 710 l 981,-3944 978,3944 h 641 L 4947,0 H 4153 L 3169,4050 2175,0 h -794 z"
       id="DejaVuSans-57-5"
       transform="scale(0.015625)" />
    <path
       d="m 2194,1759 q -697,0 -966,-159 -269,-159 -269,-544 0,-306 202,-486 202,-179 548,-179 479,0 768,339 289,339 289,901 v 128 z m 1147,238 V 0 H 2766 V 531 Q 2569,213 2275,61 1981,-91 1556,-91 q -537,0 -855,302 -317,302 -317,808 0,590 395,890 396,300 1180,300 h 807 v 57 q 0,397 -261,614 -261,217 -733,217 -300,0 -585,-72 -284,-72 -546,-216 v 532 q 315,122 612,182 297,61 578,61 760,0 1135,-394 375,-393 375,-1193 z"
       id="DejaVuSans-61-4"
       transform="scale(0.015625)" />
    <path
       d="M 1172,4494 V 3500 H 2356 V 3053 H 1172 V 1153 q 0,-428 117,-550 117,-122 477,-122 h 590 V 0 H 1766 Q 1100,0 847,248 594,497 594,1153 V 3053 H 172 v 447 h 422 v 994 z"
       id="DejaVuSans-74-4"
       transform="scale(0.015625)" />
    <path
       d="M 3597,1894 V 1613 H 953 q 38,-594 358,-905 320,-311 892,-311 331,0 642,81 311,81 618,244 V 178 Q 3153,47 2828,-22 2503,-91 2169,-91 1331,-91 842,396 353,884 353,1716 q 0,859 464,1363 464,505 1252,505 706,0 1117,-455 411,-454 411,-1235 z m -575,169 q -6,471 -264,752 -258,282 -683,282 -481,0 -770,-272 -289,-272 -333,-766 z"
       id="DejaVuSans-65-4"
       transform="scale(0.015625)" />
    <path
       d="m 2631,2963 q -97,56 -211,82 -114,27 -251,27 -488,0 -749,-317 -261,-317 -261,-911 V 0 H 581 v 3500 h 578 v -544 q 182,319 472,473 291,155 707,155 59,0 131,-8 72,-7 159,-23 z"
       id="DejaVuSans-72-6"
       transform="scale(0.015625)" />
    <path
       d="M 1259,4147 V 519 h 763 q 966,0 1414,437 448,438 448,1382 0,937 -448,1373 -448,436 -1414,436 z m -631,519 h 1297 q 1356,0 1990,-564 635,-564 635,-1764 Q 4550,1131 3912,565 3275,0 1925,0 H 628 Z"
       id="DejaVuSans-44-0"
       transform="scale(0.015625)" />
    <path
       d="m 603,3500 h 575 V 0 H 603 Z m 0,1363 h 575 V 4134 H 603 Z"
       id="DejaVuSans-69-0"
       transform="scale(0.015625)" />
    <path
       d="m 3328,2828 q 216,388 516,572 300,184 706,184 547,0 844,-383 297,-382 297,-1088 V 0 h -578 v 2094 q 0,503 -179,746 -178,244 -543,244 -447,0 -707,-297 -259,-296 -259,-809 V 0 h -578 v 2094 q 0,506 -178,748 -178,242 -550,242 -441,0 -701,-298 -259,-298 -259,-808 V 0 H 581 v 3500 h 578 v -544 q 197,322 472,475 275,153 653,153 382,0 649,-194 267,-193 395,-562 z"
       id="DejaVuSans-6d-6"
       transform="scale(0.015625)" />
    <path
       d="m 1959,3097 q -462,0 -731,-361 -269,-361 -269,-989 0,-628 267,-989 268,-361 733,-361 460,0 728,362 269,363 269,988 0,622 -269,986 -268,364 -728,364 z m 0,487 q 750,0 1178,-488 429,-487 429,-1349 Q 3566,888 3137,398 2709,-91 1959,-91 1206,-91 779,398 353,888 353,1747 q 0,862 426,1349 427,488 1180,488 z"
       id="DejaVuSans-6f-3"
       transform="scale(0.015625)" />
    <path
       d="M 3513,2113 V 0 h -575 v 2094 q 0,497 -194,743 -194,247 -581,247 -466,0 -735,-297 -269,-296 -269,-809 V 0 H 581 v 3500 h 578 v -544 q 207,316 486,472 280,156 646,156 603,0 912,-373 310,-373 310,-1098 z"
       id="DejaVuSans-6e-3"
       transform="scale(0.015625)" />
    <path
       d="m 2906,2969 v 1894 h 575 V 0 H 2906 V 525 Q 2725,213 2448,61 2172,-91 1784,-91 1150,-91 751,415 353,922 353,1747 q 0,825 398,1331 399,506 1033,506 388,0 664,-152 277,-151 458,-463 z M 947,1747 q 0,-634 261,-995 261,-361 717,-361 456,0 718,361 263,361 263,995 0,634 -263,995 -262,361 -718,361 -456,0 -717,-361 -261,-361 -261,-995 z"
       id="DejaVuSans-64-5"
       transform="scale(0.015625)" />
    <path
       d="m 0,4.1833 c 1.109424,0 2.173559,-0.440779 2.95804,-1.22526 C 3.742521,2.173559 4.1833,1.109424 4.1833,0 4.1833,-1.109424 3.742521,-2.173559 2.95804,-2.95804 2.173559,-3.742521 1.109424,-4.1833 0,-4.1833 c -1.109424,0 -2.173559,0.440779 -2.95804,1.22526 C -3.742521,-2.173559 -4.1833,-1.109424 -4.1833,0 c 0,1.109424 0.440779,2.173559 1.22526,2.95804 C -2.173559,3.742521 -1.109424,4.1833 0,4.1833 Z"
       id="m4e80a32498"
       style="stroke:#808080" />
    <clipPath
       id="pefb7879d33">
      <rect
         height="216.216"
         width="217.62"
         x="35.099998"
         y="33.695999"
         id="rect1564" />
    </clipPath>
    <style
       type="text/css"
       id="style1700">*{stroke-linecap:butt;stroke-linejoin:round;}</style>
    <path
       d="M 3841,3500 2234,1784 3219,0 H 2559 L 1819,1388 531,0 H -166 L 1556,1844 641,3500 h 659 l 672,-1266 1172,1266 z"
       id="DejaVuSans-Oblique-78-0"
       transform="scale(0.015625)" />
    <path
       d="m 428,1388 410,2112 h 578 L 1006,1409 q -31,-153 -45,-262 -14,-109 -14,-181 0,-266 162,-412 163,-145 460,-145 462,0 799,312 338,313 441,842 l 385,1937 h 575 L 3091,0 h -575 l 115,550 Q 2388,244 2052,76 1716,-91 1338,-91 878,-91 622,161 366,413 366,863 q 0,93 15,234 16,141 47,291 z"
       id="DejaVuSans-Oblique-75-2"
       transform="scale(0.015625)" />
    <path
       d="m 1984,4856 q -418,-718 -622,-1422 -203,-703 -203,-1425 0,-721 205,-1429 205,-708 620,-1424 h -500 q -468,735 -701,1444 -233,709 -233,1409 0,697 231,1403 232,707 703,1444 z"
       id="DejaVuSans-28-8"
       transform="scale(0.015625)" />
    <path
       d="m 513,4856 h 500 q 468,-737 701,-1444 233,-706 233,-1403 0,-700 -233,-1409 -233,-709 -701,-1444 H 513 q 415,716 620,1424 205,708 205,1429 0,722 -205,1425 -205,704 -620,1422 z"
       id="DejaVuSans-29-4"
       transform="scale(0.015625)" />
    <path
       d="m 556,4666 h 635 V 1831 q 0,-750 271,-1080 272,-329 882,-329 606,0 878,329 272,330 272,1080 v 2835 h 634 V 1753 Q 4128,841 3676,375 3225,-91 2344,-91 1459,-91 1007,375 556,841 556,1753 Z"
       id="DejaVuSans-55-4"
       transform="scale(0.015625)" />
    <path
       d="M 1172,4494 V 3500 H 2356 V 3053 H 1172 V 1153 q 0,-428 117,-550 117,-122 477,-122 h 590 V 0 H 1766 Q 1100,0 847,248 594,497 594,1153 V 3053 H 172 v 447 h 422 v 994 z"
       id="DejaVuSans-74-8"
       transform="scale(0.015625)" />
    <path
       d="m 603,3500 h 575 V 0 H 603 Z m 0,1363 h 575 V 4134 H 603 Z"
       id="DejaVuSans-69-5"
       transform="scale(0.015625)" />
    <path
       d="m 603,4863 h 575 V 0 H 603 Z"
       id="DejaVuSans-6c-2"
       transform="scale(0.015625)" />
    <path
       d="m 2059,-325 q -243,-625 -475,-815 -231,-191 -618,-191 H 506 v 481 h 338 q 237,0 368,113 132,112 291,531 L 1606,56 191,3500 H 800 L 1894,763 2988,3500 h 609 z"
       id="DejaVuSans-79-2"
       transform="scale(0.015625)" />
    <path
       d="m 213,4666 h 637 l 981,-3944 978,3944 h 710 l 981,-3944 978,3944 h 641 L 4947,0 H 4153 L 3169,4050 2175,0 h -794 z"
       id="DejaVuSans-57-0"
       transform="scale(0.015625)" />
    <path
       d="m 2194,1759 q -697,0 -966,-159 -269,-159 -269,-544 0,-306 202,-486 202,-179 548,-179 479,0 768,339 289,339 289,901 v 128 z m 1147,238 V 0 H 2766 V 531 Q 2569,213 2275,61 1981,-91 1556,-91 q -537,0 -855,302 -317,302 -317,808 0,590 395,890 396,300 1180,300 h 807 v 57 q 0,397 -261,614 -261,217 -733,217 -300,0 -585,-72 -284,-72 -546,-216 v 532 q 315,122 612,182 297,61 578,61 760,0 1135,-394 375,-393 375,-1193 z"
       id="DejaVuSans-61-1"
       transform="scale(0.015625)" />
    <path
       d="M 3597,1894 V 1613 H 953 q 38,-594 358,-905 320,-311 892,-311 331,0 642,81 311,81 618,244 V 178 Q 3153,47 2828,-22 2503,-91 2169,-91 1331,-91 842,396 353,884 353,1716 q 0,859 464,1363 464,505 1252,505 706,0 1117,-455 411,-454 411,-1235 z m -575,169 q -6,471 -264,752 -258,282 -683,282 -481,0 -770,-272 -289,-272 -333,-766 z"
       id="DejaVuSans-65-7"
       transform="scale(0.015625)" />
    <path
       d="m 2631,2963 q -97,56 -211,82 -114,27 -251,27 -488,0 -749,-317 -261,-317 -261,-911 V 0 H 581 v 3500 h 578 v -544 q 182,319 472,473 291,155 707,155 59,0 131,-8 72,-7 159,-23 z"
       id="DejaVuSans-72-8"
       transform="scale(0.015625)" />
    <path
       d="M 1259,4147 V 519 h 763 q 966,0 1414,437 448,438 448,1382 0,937 -448,1373 -448,436 -1414,436 z m -631,519 h 1297 q 1356,0 1990,-564 635,-564 635,-1764 Q 4550,1131 3912,565 3275,0 1925,0 H 628 Z"
       id="DejaVuSans-44-5"
       transform="scale(0.015625)" />
    <path
       d="m 3328,2828 q 216,388 516,572 300,184 706,184 547,0 844,-383 297,-382 297,-1088 V 0 h -578 v 2094 q 0,503 -179,746 -178,244 -543,244 -447,0 -707,-297 -259,-296 -259,-809 V 0 h -578 v 2094 q 0,506 -178,748 -178,242 -550,242 -441,0 -701,-298 -259,-298 -259,-808 V 0 H 581 v 3500 h 578 v -544 q 197,322 472,475 275,153 653,153 382,0 649,-194 267,-193 395,-562 z"
       id="DejaVuSans-6d-3"
       transform="scale(0.015625)" />
    <path
       d="m 1959,3097 q -462,0 -731,-361 -269,-361 -269,-989 0,-628 267,-989 268,-361 733,-361 460,0 728,362 269,363 269,988 0,622 -269,986 -268,364 -728,364 z m 0,487 q 750,0 1178,-488 429,-487 429,-1349 Q 3566,888 3137,398 2709,-91 1959,-91 1206,-91 779,398 353,888 353,1747 q 0,862 426,1349 427,488 1180,488 z"
       id="DejaVuSans-6f-1"
       transform="scale(0.015625)" />
    <path
       d="M 3513,2113 V 0 h -575 v 2094 q 0,497 -194,743 -194,247 -581,247 -466,0 -735,-297 -269,-296 -269,-809 V 0 H 581 v 3500 h 578 v -544 q 207,316 486,472 280,156 646,156 603,0 912,-373 310,-373 310,-1098 z"
       id="DejaVuSans-6e-0"
       transform="scale(0.015625)" />
    <path
       d="m 2906,2969 v 1894 h 575 V 0 H 2906 V 525 Q 2725,213 2448,61 2172,-91 1784,-91 1150,-91 751,415 353,922 353,1747 q 0,825 398,1331 399,506 1033,506 388,0 664,-152 277,-151 458,-463 z M 947,1747 q 0,-634 261,-995 261,-361 717,-361 456,0 718,361 263,361 263,995 0,634 -263,995 -262,361 -718,361 -456,0 -717,-361 -261,-361 -261,-995 z"
       id="DejaVuSans-64-6"
       transform="scale(0.015625)" />
    <path
       d="m 0,4.1833 c 1.109424,0 2.173559,-0.440779 2.95804,-1.22526 C 3.742521,2.173559 4.1833,1.109424 4.1833,0 4.1833,-1.109424 3.742521,-2.173559 2.95804,-2.95804 2.173559,-3.742521 1.109424,-4.1833 0,-4.1833 c -1.109424,0 -2.173559,0.440779 -2.95804,1.22526 C -3.742521,-2.173559 -4.1833,-1.109424 -4.1833,0 c 0,1.109424 0.440779,2.173559 1.22526,2.95804 C -2.173559,3.742521 -1.109424,4.1833 0,4.1833 Z"
       id="m2784d06970"
       style="stroke:#808080" />
    <clipPath
       id="pebee5ec4f8">
      <rect
         height="216.216"
         width="217.62"
         x="35.099998"
         y="33.695999"
         id="rect1859" />
    </clipPath>
    <style
       type="text/css"
       id="style2138">*{stroke-linecap:butt;stroke-linejoin:round;}</style>
    <path
       d="M 3841,3500 2234,1784 3219,0 H 2559 L 1819,1388 531,0 H -166 L 1556,1844 641,3500 h 659 l 672,-1266 1172,1266 z"
       id="DejaVuSans-Oblique-78-9"
       transform="scale(0.015625)" />
    <path
       d="M 5747,2113 5338,0 h -575 l 403,2094 q 25,134 37,231 13,97 13,166 0,281 -157,437 -156,156 -437,156 -419,0 -747,-314 -328,-314 -425,-817 L 3066,0 h -575 l 409,2094 q 25,115 37,213 13,99 13,177 0,285 -156,442 -156,158 -431,158 -425,0 -754,-314 -328,-314 -425,-817 L 800,0 H 225 l 684,3500 h 575 l -109,-544 q 234,307 548,467 315,161 674,161 381,0 626,-200 246,-200 296,-556 262,369 607,562 346,194 730,194 450,0 695,-259 246,-259 246,-734 0,-103 -13,-227 -12,-123 -37,-251 z"
       id="DejaVuSans-Oblique-6d-0"
       transform="scale(0.015625)" />
    <path
       d="m 428,1388 410,2112 h 578 L 1006,1409 q -31,-153 -45,-262 -14,-109 -14,-181 0,-266 162,-412 163,-145 460,-145 462,0 799,312 338,313 441,842 l 385,1937 h 575 L 3091,0 h -575 l 115,550 Q 2388,244 2052,76 1716,-91 1338,-91 878,-91 622,161 366,413 366,863 q 0,93 15,234 16,141 47,291 z"
       id="DejaVuSans-Oblique-75-7"
       transform="scale(0.015625)" />
    <path
       d="m 1984,4856 q -418,-718 -622,-1422 -203,-703 -203,-1425 0,-721 205,-1429 205,-708 620,-1424 h -500 q -468,735 -701,1444 -233,709 -233,1409 0,697 231,1403 232,707 703,1444 z"
       id="DejaVuSans-28-2"
       transform="scale(0.015625)" />
    <path
       d="m 513,4856 h 500 q 468,-737 701,-1444 233,-706 233,-1403 0,-700 -233,-1409 -233,-709 -701,-1444 H 513 q 415,716 620,1424 205,708 205,1429 0,722 -205,1425 -205,704 -620,1422 z"
       id="DejaVuSans-29-45"
       transform="scale(0.015625)" />
    <path
       d="m 628,4666 h 941 L 2759,1491 3956,4666 h 941 V 0 H 4281 V 4097 L 3078,897 H 2444 L 1241,4097 V 0 H 628 Z"
       id="DejaVuSans-4d-7"
       transform="scale(0.015625)" />
    <path
       d="m 2194,1759 q -697,0 -966,-159 -269,-159 -269,-544 0,-306 202,-486 202,-179 548,-179 479,0 768,339 289,339 289,901 v 128 z m 1147,238 V 0 H 2766 V 531 Q 2569,213 2275,61 1981,-91 1556,-91 q -537,0 -855,302 -317,302 -317,808 0,590 395,890 396,300 1180,300 h 807 v 57 q 0,397 -261,614 -261,217 -733,217 -300,0 -585,-72 -284,-72 -546,-216 v 532 q 315,122 612,182 297,61 578,61 760,0 1135,-394 375,-393 375,-1193 z"
       id="DejaVuSans-61-0"
       transform="scale(0.015625)" />
    <path
       d="m 2631,2963 q -97,56 -211,82 -114,27 -251,27 -488,0 -749,-317 -261,-317 -261,-911 V 0 H 581 v 3500 h 578 v -544 q 182,319 472,473 291,155 707,155 59,0 131,-8 72,-7 159,-23 z"
       id="DejaVuSans-72-7"
       transform="scale(0.015625)" />
    <path
       d="m 2906,1791 q 0,625 -258,968 -257,344 -723,344 -462,0 -720,-344 -258,-343 -258,-968 0,-622 258,-966 258,-344 720,-344 466,0 723,344 258,344 258,966 z M 3481,434 q 0,-893 -397,-1329 -396,-436 -1215,-436 -303,0 -572,45 -269,45 -522,139 v 559 q 253,-137 500,-202 247,-66 503,-66 566,0 847,295 281,295 281,892 V 616 Q 2728,306 2450,153 2172,0 1784,0 1141,0 747,490 353,981 353,1791 q 0,812 394,1302 394,491 1037,491 388,0 666,-153 278,-153 456,-462 v 531 h 575 z"
       id="DejaVuSans-67-9"
       transform="scale(0.015625)" />
    <path
       d="m 603,3500 h 575 V 0 H 603 Z m 0,1363 h 575 V 4134 H 603 Z"
       id="DejaVuSans-69-6"
       transform="scale(0.015625)" />
    <path
       d="M 3513,2113 V 0 h -575 v 2094 q 0,497 -194,743 -194,247 -581,247 -466,0 -735,-297 -269,-296 -269,-809 V 0 H 581 v 3500 h 578 v -544 q 207,316 486,472 280,156 646,156 603,0 912,-373 310,-373 310,-1098 z"
       id="DejaVuSans-6e-5"
       transform="scale(0.015625)" />
    <path
       d="m 603,4863 h 575 V 0 H 603 Z"
       id="DejaVuSans-6c-5"
       transform="scale(0.015625)" />
    <path
       d=""
       id="DejaVuSans-20-1"
       transform="scale(0.015625)" />
    <path
       d="m 556,4666 h 635 V 1831 q 0,-750 271,-1080 272,-329 882,-329 606,0 878,329 272,330 272,1080 v 2835 h 634 V 1753 Q 4128,841 3676,375 3225,-91 2344,-91 1459,-91 1007,375 556,841 556,1753 Z"
       id="DejaVuSans-55-2"
       transform="scale(0.015625)" />
    <path
       d="M 1172,4494 V 3500 H 2356 V 3053 H 1172 V 1153 q 0,-428 117,-550 117,-122 477,-122 h 590 V 0 H 1766 Q 1100,0 847,248 594,497 594,1153 V 3053 H 172 v 447 h 422 v 994 z"
       id="DejaVuSans-74-9"
       transform="scale(0.015625)" />
    <path
       d="m 2059,-325 q -243,-625 -475,-815 -231,-191 -618,-191 H 506 v 481 h 338 q 237,0 368,113 132,112 291,531 L 1606,56 191,3500 H 800 L 1894,763 2988,3500 h 609 z"
       id="DejaVuSans-79-4"
       transform="scale(0.015625)" />
    <path
       d="m 213,4666 h 637 l 981,-3944 978,3944 h 710 l 981,-3944 978,3944 h 641 L 4947,0 H 4153 L 3169,4050 2175,0 h -794 z"
       id="DejaVuSans-57-9"
       transform="scale(0.015625)" />
    <path
       d="M 3597,1894 V 1613 H 953 q 38,-594 358,-905 320,-311 892,-311 331,0 642,81 311,81 618,244 V 178 Q 3153,47 2828,-22 2503,-91 2169,-91 1331,-91 842,396 353,884 353,1716 q 0,859 464,1363 464,505 1252,505 706,0 1117,-455 411,-454 411,-1235 z m -575,169 q -6,471 -264,752 -258,282 -683,282 -481,0 -770,-272 -289,-272 -333,-766 z"
       id="DejaVuSans-65-6"
       transform="scale(0.015625)" />
    <path
       d="M 1259,4147 V 519 h 763 q 966,0 1414,437 448,438 448,1382 0,937 -448,1373 -448,436 -1414,436 z m -631,519 h 1297 q 1356,0 1990,-564 635,-564 635,-1764 Q 4550,1131 3912,565 3275,0 1925,0 H 628 Z"
       id="DejaVuSans-44-3"
       transform="scale(0.015625)" />
    <path
       d="m 3328,2828 q 216,388 516,572 300,184 706,184 547,0 844,-383 297,-382 297,-1088 V 0 h -578 v 2094 q 0,503 -179,746 -178,244 -543,244 -447,0 -707,-297 -259,-296 -259,-809 V 0 h -578 v 2094 q 0,506 -178,748 -178,242 -550,242 -441,0 -701,-298 -259,-298 -259,-808 V 0 H 581 v 3500 h 578 v -544 q 197,322 472,475 275,153 653,153 382,0 649,-194 267,-193 395,-562 z"
       id="DejaVuSans-6d-1"
       transform="scale(0.015625)" />
    <path
       d="m 1959,3097 q -462,0 -731,-361 -269,-361 -269,-989 0,-628 267,-989 268,-361 733,-361 460,0 728,362 269,363 269,988 0,622 -269,986 -268,364 -728,364 z m 0,487 q 750,0 1178,-488 429,-487 429,-1349 Q 3566,888 3137,398 2709,-91 1959,-91 1206,-91 779,398 353,888 353,1747 q 0,862 426,1349 427,488 1180,488 z"
       id="DejaVuSans-6f-7"
       transform="scale(0.015625)" />
    <path
       d="m 2906,2969 v 1894 h 575 V 0 H 2906 V 525 Q 2725,213 2448,61 2172,-91 1784,-91 1150,-91 751,415 353,922 353,1747 q 0,825 398,1331 399,506 1033,506 388,0 664,-152 277,-151 458,-463 z M 947,1747 q 0,-634 261,-995 261,-361 717,-361 456,0 718,361 263,361 263,995 0,634 -263,995 -262,361 -718,361 -456,0 -717,-361 -261,-361 -261,-995 z"
       id="DejaVuSans-64-61"
       transform="scale(0.015625)" />
    <clipPath
       id="p6fd168179c-0">
      <rect
         height="207.89999"
         width="217.62"
         x="35.099998"
         y="32.400002"
         id="rect2291" />
    </clipPath>
    <style
       type="text/css"
       id="style2447">*{stroke-linecap:butt;stroke-linejoin:round;}</style>
    <path
       d="M 3841,3500 2234,1784 3219,0 H 2559 L 1819,1388 531,0 H -166 L 1556,1844 641,3500 h 659 l 672,-1266 1172,1266 z"
       id="DejaVuSans-Oblique-78-5"
       transform="scale(0.015625)" />
    <path
       d="m 428,1388 410,2112 h 578 L 1006,1409 q -31,-153 -45,-262 -14,-109 -14,-181 0,-266 162,-412 163,-145 460,-145 462,0 799,312 338,313 441,842 l 385,1937 h 575 L 3091,0 h -575 l 115,550 Q 2388,244 2052,76 1716,-91 1338,-91 878,-91 622,161 366,413 366,863 q 0,93 15,234 16,141 47,291 z"
       id="DejaVuSans-Oblique-75-6"
       transform="scale(0.015625)" />
    <path
       d="m 1984,4856 q -418,-718 -622,-1422 -203,-703 -203,-1425 0,-721 205,-1429 205,-708 620,-1424 h -500 q -468,735 -701,1444 -233,709 -233,1409 0,697 231,1403 232,707 703,1444 z"
       id="DejaVuSans-28-87"
       transform="scale(0.015625)" />
    <path
       d="m 513,4856 h 500 q 468,-737 701,-1444 233,-706 233,-1403 0,-700 -233,-1409 -233,-709 -701,-1444 H 513 q 415,716 620,1424 205,708 205,1429 0,722 -205,1425 -205,704 -620,1422 z"
       id="DejaVuSans-29-1"
       transform="scale(0.015625)" />
    <path
       d="m 556,4666 h 635 V 1831 q 0,-750 271,-1080 272,-329 882,-329 606,0 878,329 272,330 272,1080 v 2835 h 634 V 1753 Q 4128,841 3676,375 3225,-91 2344,-91 1459,-91 1007,375 556,841 556,1753 Z"
       id="DejaVuSans-55-0"
       transform="scale(0.015625)" />
    <path
       d="M 1172,4494 V 3500 H 2356 V 3053 H 1172 V 1153 q 0,-428 117,-550 117,-122 477,-122 h 590 V 0 H 1766 Q 1100,0 847,248 594,497 594,1153 V 3053 H 172 v 447 h 422 v 994 z"
       id="DejaVuSans-74-0"
       transform="scale(0.015625)" />
    <path
       d="m 603,3500 h 575 V 0 H 603 Z m 0,1363 h 575 V 4134 H 603 Z"
       id="DejaVuSans-69-3"
       transform="scale(0.015625)" />
    <path
       d="m 603,4863 h 575 V 0 H 603 Z"
       id="DejaVuSans-6c-7"
       transform="scale(0.015625)" />
    <path
       d="m 2059,-325 q -243,-625 -475,-815 -231,-191 -618,-191 H 506 v 481 h 338 q 237,0 368,113 132,112 291,531 L 1606,56 191,3500 H 800 L 1894,763 2988,3500 h 609 z"
       id="DejaVuSans-79-9"
       transform="scale(0.015625)" />
    <path
       d="m 213,4666 h 637 l 981,-3944 978,3944 h 710 l 981,-3944 978,3944 h 641 L 4947,0 H 4153 L 3169,4050 2175,0 h -794 z"
       id="DejaVuSans-57-4"
       transform="scale(0.015625)" />
    <path
       d="m 2194,1759 q -697,0 -966,-159 -269,-159 -269,-544 0,-306 202,-486 202,-179 548,-179 479,0 768,339 289,339 289,901 v 128 z m 1147,238 V 0 H 2766 V 531 Q 2569,213 2275,61 1981,-91 1556,-91 q -537,0 -855,302 -317,302 -317,808 0,590 395,890 396,300 1180,300 h 807 v 57 q 0,397 -261,614 -261,217 -733,217 -300,0 -585,-72 -284,-72 -546,-216 v 532 q 315,122 612,182 297,61 578,61 760,0 1135,-394 375,-393 375,-1193 z"
       id="DejaVuSans-61-02"
       transform="scale(0.015625)" />
    <path
       d="M 3597,1894 V 1613 H 953 q 38,-594 358,-905 320,-311 892,-311 331,0 642,81 311,81 618,244 V 178 Q 3153,47 2828,-22 2503,-91 2169,-91 1331,-91 842,396 353,884 353,1716 q 0,859 464,1363 464,505 1252,505 706,0 1117,-455 411,-454 411,-1235 z m -575,169 q -6,471 -264,752 -258,282 -683,282 -481,0 -770,-272 -289,-272 -333,-766 z"
       id="DejaVuSans-65-8"
       transform="scale(0.015625)" />
    <path
       d="m 2631,2963 q -97,56 -211,82 -114,27 -251,27 -488,0 -749,-317 -261,-317 -261,-911 V 0 H 581 v 3500 h 578 v -544 q 182,319 472,473 291,155 707,155 59,0 131,-8 72,-7 159,-23 z"
       id="DejaVuSans-72-2"
       transform="scale(0.015625)" />
    <path
       d="M 1259,4147 V 519 h 763 q 966,0 1414,437 448,438 448,1382 0,937 -448,1373 -448,436 -1414,436 z m -631,519 h 1297 q 1356,0 1990,-564 635,-564 635,-1764 Q 4550,1131 3912,565 3275,0 1925,0 H 628 Z"
       id="DejaVuSans-44-31"
       transform="scale(0.015625)" />
    <path
       d="m 3328,2828 q 216,388 516,572 300,184 706,184 547,0 844,-383 297,-382 297,-1088 V 0 h -578 v 2094 q 0,503 -179,746 -178,244 -543,244 -447,0 -707,-297 -259,-296 -259,-809 V 0 h -578 v 2094 q 0,506 -178,748 -178,242 -550,242 -441,0 -701,-298 -259,-298 -259,-808 V 0 H 581 v 3500 h 578 v -544 q 197,322 472,475 275,153 653,153 382,0 649,-194 267,-193 395,-562 z"
       id="DejaVuSans-6d-4"
       transform="scale(0.015625)" />
    <path
       d="m 1959,3097 q -462,0 -731,-361 -269,-361 -269,-989 0,-628 267,-989 268,-361 733,-361 460,0 728,362 269,363 269,988 0,622 -269,986 -268,364 -728,364 z m 0,487 q 750,0 1178,-488 429,-487 429,-1349 Q 3566,888 3137,398 2709,-91 1959,-91 1206,-91 779,398 353,888 353,1747 q 0,862 426,1349 427,488 1180,488 z"
       id="DejaVuSans-6f-4"
       transform="scale(0.015625)" />
    <path
       d="M 3513,2113 V 0 h -575 v 2094 q 0,497 -194,743 -194,247 -581,247 -466,0 -735,-297 -269,-296 -269,-809 V 0 H 581 v 3500 h 578 v -544 q 207,316 486,472 280,156 646,156 603,0 912,-373 310,-373 310,-1098 z"
       id="DejaVuSans-6e-4"
       transform="scale(0.015625)" />
    <path
       d="m 2906,2969 v 1894 h 575 V 0 H 2906 V 525 Q 2725,213 2448,61 2172,-91 1784,-91 1150,-91 751,415 353,922 353,1747 q 0,825 398,1331 399,506 1033,506 388,0 664,-152 277,-151 458,-463 z M 947,1747 q 0,-634 261,-995 261,-361 717,-361 456,0 718,361 263,361 263,995 0,634 -263,995 -262,361 -718,361 -456,0 -717,-361 -261,-361 -261,-995 z"
       id="DejaVuSans-64-4"
       transform="scale(0.015625)" />
    <path
       d="m 0,4.1833 c 1.109424,0 2.173559,-0.440779 2.95804,-1.22526 C 3.742521,2.173559 4.1833,1.109424 4.1833,0 4.1833,-1.109424 3.742521,-2.173559 2.95804,-2.95804 2.173559,-3.742521 1.109424,-4.1833 0,-4.1833 c -1.109424,0 -2.173559,0.440779 -2.95804,1.22526 C -3.742521,-2.173559 -4.1833,-1.109424 -4.1833,0 c 0,1.109424 0.440779,2.173559 1.22526,2.95804 C -2.173559,3.742521 -1.109424,4.1833 0,4.1833 Z"
       id="me3597370a6"
       style="stroke:#808080" />
    <clipPath
       id="pa32517912d">
      <rect
         height="207.89999"
         width="217.62"
         x="35.099998"
         y="32.400002"
         id="rect2606" />
    </clipPath>
    <rect
       x="71.867386"
       y="375.16513"
       width="157.49583"
       height="67.377899"
       id="rect3267-9" />
    <rect
       x="71.867386"
       y="375.16513"
       width="157.49583"
       height="67.377899"
       id="rect3280" />
    <rect
       x="-13.861946"
       y="-15.990014"
       width="83.07711"
       height="41.538551"
       id="rect3302-0" />
    <rect
       x="-13.861946"
       y="-15.990014"
       width="83.07711"
       height="41.538551"
       id="rect3319" />
    <clipPath
       id="pa32517912d-2">
      <rect
         id="rect2606-4"
         y="32.400002"
         x="35.099998"
         width="217.62"
         height="207.89999" />
    </clipPath>
  </defs>
  <sodipodi:namedview
     units="cm"
     inkscape:window-maximized="1"
     inkscape:window-y="-8"
     inkscape:window-x="-8"
     inkscape:window-height="1017"
     inkscape:window-width="1920"
     showgrid="false"
     inkscape:document-rotation="0"
     inkscape:current-layer="layer1"
     inkscape:document-units="mm"
     inkscape:cy="220.5401"
     inkscape:cx="337.23637"
     inkscape:zoom="0.88855947"
     inkscape:pageshadow="2"
     inkscape:pageopacity="0.0"
     borderopacity="1.0"
     bordercolor="#666666"
     pagecolor="#ffffff"
     id="base" />
  <metadata
     id="metadata5">
    <rdf:RDF>
      <cc:Work
         rdf:about="">
        <dc:format>image/svg+xml</dc:format>
        <dc:type
           rdf:resource="http://purl.org/dc/dcmitype/StillImage" />
        <dc:title></dc:title>
      </cc:Work>
    </rdf:RDF>
  </metadata>
  <g
     id="layer1"
     inkscape:groupmode="layer"
     inkscape:label="Calque 1">
    <g
       transform="translate(-4.7625002)"
       id="g3638">
      <g
         id="patch_2-3"
         transform="matrix(0.35277777,0,0,0.35277777,8.8153322,8.7810382)">
        <path
           d="M 35.1,240.3 H 252.72 V 32.4 H 35.1 Z"
           style="fill:#ffffff"
           id="path2454" />
      </g>
      <g
         id="matplotlib.axis_1-1"
         transform="matrix(0.35277777,0,0,0.35277777,8.8153322,8.7810382)">
        <g
           id="text_1-9">
          <!-- $x$ -->
          <g
             transform="matrix(0.1,0,0,-0.1,140.91,251.89844)"
             id="g2462">
            <defs
               id="defs2458">
              <path
                 d="M 3841,3500 2234,1784 3219,0 H 2559 L 1819,1388 531,0 H -166 L 1556,1844 641,3500 h 659 l 672,-1266 1172,1266 z"
                 id="path2641"
                 transform="scale(0.015625)" />
            </defs>
            <use
               height="100%"
               width="100%"
               y="0"
               x="0"
               transform="translate(0,0.3125)"
               xlink:href="#DejaVuSans-Oblique-78-5"
               id="use2460" />
          </g>
        </g>
      </g>
      <g
         id="matplotlib.axis_2-8"
         transform="matrix(0.35277777,0,0,0.35277777,8.8153322,8.7810382)">
        <g
           id="text_2-5">
          <!-- $u(x)$ -->
          <g
             transform="matrix(0,-0.1,-0.1,0,29.020313,146.4)"
             id="g2479">
            <defs
               id="defs2469">
              <path
                 d="m 428,1388 410,2112 h 578 L 1006,1409 q -31,-153 -45,-262 -14,-109 -14,-181 0,-266 162,-412 163,-145 460,-145 462,0 799,312 338,313 441,842 l 385,1937 h 575 L 3091,0 h -575 l 115,550 Q 2388,244 2052,76 1716,-91 1338,-91 878,-91 622,161 366,413 366,863 q 0,93 15,234 16,141 47,291 z"
                 id="path2648"
                 transform="scale(0.015625)" />
              <path
                 d="m 1984,4856 q -418,-718 -622,-1422 -203,-703 -203,-1425 0,-721 205,-1429 205,-708 620,-1424 h -500 q -468,735 -701,1444 -233,709 -233,1409 0,697 231,1403 232,707 703,1444 z"
                 id="path2650"
                 transform="scale(0.015625)" />
              <path
                 d="m 513,4856 h 500 q 468,-737 701,-1444 233,-706 233,-1403 0,-700 -233,-1409 -233,-709 -701,-1444 H 513 q 415,716 620,1424 205,708 205,1429 0,722 -205,1425 -205,704 -620,1422 z"
                 id="path2652"
                 transform="scale(0.015625)" />
            </defs>
            <use
               height="100%"
               width="100%"
               y="0"
               x="0"
               transform="translate(0,0.125)"
               xlink:href="#DejaVuSans-Oblique-75-6"
               id="use2471" />
            <use
               height="100%"
               width="100%"
               y="0"
               x="0"
               transform="translate(63.378906,0.125)"
               xlink:href="#DejaVuSans-28-87"
               id="use2473" />
            <use
               height="100%"
               width="100%"
               y="0"
               x="0"
               transform="translate(102.39258,0.125)"
               xlink:href="#DejaVuSans-Oblique-78-5"
               id="use2475" />
            <use
               height="100%"
               width="100%"
               y="0"
               x="0"
               transform="translate(161.57227,0.125)"
               xlink:href="#DejaVuSans-29-1"
               id="use2477" />
          </g>
        </g>
      </g>
      <g
         id="line2d_1-3"
         transform="matrix(0.35277777,0,0,0.35277777,8.8153322,8.7810382)">
        <path
           clip-path="url(#pa32517912d)"
           d="m 42.12,232.875 0.704348,-57.2535 0.704348,-7.60807 0.704347,-4.91087 0.704348,-3.70819 1.408696,-5.56344 1.408696,-4.20095 1.408695,-3.41166 1.408696,-2.89107 2.113043,-3.66997 2.113044,-3.10996 2.113043,-2.71025 2.113044,-2.40928 2.817391,-2.85428 2.817391,-2.53732 3.52174,-2.8288 3.521739,-2.53086 4.226087,-2.72943 4.226087,-2.4626 4.930434,-2.60403 5.634783,-2.69144 5.634783,-2.44661 6.339127,-2.51476 7.04348,-2.55263 7.74783,-2.56734 8.45217,-2.564696 9.15652,-2.549295 10.56522,-2.69729 11.26957,-2.638825 12.67826,-2.7259 13.3826,-2.64596 14.79131,-2.694611 16.2,-2.720196 17.60869,-2.727845 19.0174,-2.721762 2.11304,-0.289694 v 0"
           style="fill:none;stroke:#8691bf;stroke-width:3;stroke-linecap:square"
           id="path2483" />
      </g>
      <g
         id="line2d_2-8"
         transform="matrix(0.35277777,0,0,0.35277777,8.8153322,8.7810382)">
        <path
           clip-path="url(#pa32517912d)"
           d="m 42.12,232.875 0.704348,-6.1941 0.704348,-3.19441 1.408695,-4.8418 1.408696,-3.91938 2.113043,-4.99887 2.113044,-4.36123 2.817391,-5.18289 2.817392,-4.68364 3.521739,-5.35463 3.521739,-4.93972 4.226087,-5.51076 4.226087,-5.15342 4.930434,-5.6528 5.634783,-6.07772 5.634783,-5.74463 6.33913,-6.13407 7.043481,-6.47503 7.04348,-6.17307 7.74782,-6.49408 8.45218,-6.7811 9.15652,-7.03913 9.15652,-6.76257 9.86087,-7.01309 10.56522,-7.241678 11.26956,-7.451108 11.97391,-7.643804 12.67826,-7.821832 13.38261,-7.986966 14.08696,-8.140731 14.7913,-8.284431 11.26957,-6.147848 v 0"
           style="fill:none;stroke:#a1c181;stroke-width:3;stroke-linecap:square"
           id="path2486" />
      </g>
      <g
         id="line2d_3-9"
         transform="matrix(0.35277777,0,0,0.35277777,8.8153322,8.7810382)">
        <path
           clip-path="url(#pa32517912d)"
           d="M 112.55478,232.875 V 101.7148"
           style="fill:none;stroke:#808080;stroke-width:1.5;stroke-dasharray:5.55, 2.4;stroke-dashoffset:0;stroke-opacity:0.7"
           id="path2489" />
      </g>
      <g
         id="line2d_4-5"
         transform="matrix(0.35277777,0,0,0.35277777,8.8153322,8.7810382)">
        <path
           clip-path="url(#pa32517912d)"
           d="m 42.12,101.7148 h 70.43478"
           style="fill:none;stroke:#808080;stroke-width:1.5;stroke-dasharray:5.55, 2.4;stroke-dashoffset:0;stroke-opacity:0.7"
           id="path2492" />
      </g>
      <g
         id="line2d_5-3"
         transform="matrix(0.35277777,0,0,0.35277777,8.8153322,8.7810382)">
        <path
           clip-path="url(#pa32517912d)"
           d="M 182.98956,232.875 V 84.077206"
           style="fill:none;stroke:#808080;stroke-width:1.5;stroke-dasharray:5.55, 2.4;stroke-dashoffset:0;stroke-opacity:0.7"
           id="path2495" />
      </g>
      <g
         id="line2d_6-6"
         transform="matrix(0.35277777,0,0,0.35277777,8.8153322,8.7810382)">
        <path
           clip-path="url(#pa32517912d)"
           d="M 42.12,84.077206 H 182.98956"
           style="fill:none;stroke:#808080;stroke-width:1.5;stroke-dasharray:5.55, 2.4;stroke-dashoffset:0;stroke-opacity:0.7"
           id="path2498" />
      </g>
      <g
         id="patch_3-7"
         transform="matrix(0.35277777,0,0,0.35277777,8.8153322,8.7810382)">
        <path
           d="M 35.1,240.3 V 32.4"
           style="fill:none;stroke:#000000;stroke-width:0.8;stroke-linecap:square;stroke-linejoin:miter"
           id="path2501" />
      </g>
      <g
         id="patch_4-7"
         transform="matrix(0.35277777,0,0,0.35277777,8.8153322,8.7810382)">
        <path
           d="M 35.1,240.3 H 252.72"
           style="fill:none;stroke:#000000;stroke-width:0.8;stroke-linecap:square;stroke-linejoin:miter"
           id="path2504" />
      </g>
      <g
         id="text_3-4"
         transform="matrix(0.35277777,0,0,0.35277777,8.8153322,8.7810382)">
        <!-- Utility -->
        <g
           transform="matrix(0.12,0,0,-0.12,126.2625,26.4)"
           id="g2528">
          <defs
             id="defs2512">
            <path
               d="m 556,4666 h 635 V 1831 q 0,-750 271,-1080 272,-329 882,-329 606,0 878,329 272,330 272,1080 v 2835 h 634 V 1753 Q 4128,841 3676,375 3225,-91 2344,-91 1459,-91 1007,375 556,841 556,1753 Z"
               id="path2678"
               transform="scale(0.015625)" />
            <path
               d="M 1172,4494 V 3500 H 2356 V 3053 H 1172 V 1153 q 0,-428 117,-550 117,-122 477,-122 h 590 V 0 H 1766 Q 1100,0 847,248 594,497 594,1153 V 3053 H 172 v 447 h 422 v 994 z"
               id="path2680"
               transform="scale(0.015625)" />
            <path
               d="m 603,3500 h 575 V 0 H 603 Z m 0,1363 h 575 V 4134 H 603 Z"
               id="path2682"
               transform="scale(0.015625)" />
            <path
               d="m 603,4863 h 575 V 0 H 603 Z"
               id="path2684"
               transform="scale(0.015625)" />
            <path
               d="m 2059,-325 q -243,-625 -475,-815 -231,-191 -618,-191 H 506 v 481 h 338 q 237,0 368,113 132,112 291,531 L 1606,56 191,3500 H 800 L 1894,763 2988,3500 h 609 z"
               id="path2686"
               transform="scale(0.015625)" />
          </defs>
          <use
             height="100%"
             width="100%"
             y="0"
             x="0"
             xlink:href="#DejaVuSans-55-0"
             id="use2514" />
          <use
             height="100%"
             width="100%"
             y="0"
             x="73.193359"
             xlink:href="#DejaVuSans-74-0"
             id="use2516" />
          <use
             height="100%"
             width="100%"
             y="0"
             x="112.40234"
             xlink:href="#DejaVuSans-69-3"
             id="use2518" />
          <use
             height="100%"
             width="100%"
             y="0"
             x="140.18555"
             xlink:href="#DejaVuSans-6c-7"
             id="use2520" />
          <use
             height="100%"
             width="100%"
             y="0"
             x="167.96875"
             xlink:href="#DejaVuSans-69-3"
             id="use2522" />
          <use
             height="100%"
             width="100%"
             y="0"
             x="195.75195"
             xlink:href="#DejaVuSans-74-0"
             id="use2524" />
          <use
             height="100%"
             width="100%"
             y="0"
             x="234.96094"
             xlink:href="#DejaVuSans-79-9"
             id="use2526" />
        </g>
      </g>
      <g
         id="legend_1-6"
         transform="matrix(0.35277777,0,0,0.35277777,8.8153322,8.7810382)">
        <g
           id="patch_5-6" />
        <g
           id="line2d_7">
          <path
             d="m 44.1,45.498438 h 20"
             style="fill:none;stroke:#8691bf;stroke-width:3;stroke-linecap:square"
             id="path2534" />
        </g>
        <g
           id="line2d_8" />
        <g
           id="text_4-1">
          <!-- Water -->
          <g
             transform="matrix(0.1,0,0,-0.1,72.1,48.998438)"
             id="g2554">
            <defs
               id="defs2542">
              <path
                 d="m 213,4666 h 637 l 981,-3944 978,3944 h 710 l 981,-3944 978,3944 h 641 L 4947,0 H 4153 L 3169,4050 2175,0 h -794 z"
                 id="path2703"
                 transform="scale(0.015625)" />
              <path
                 d="m 2194,1759 q -697,0 -966,-159 -269,-159 -269,-544 0,-306 202,-486 202,-179 548,-179 479,0 768,339 289,339 289,901 v 128 z m 1147,238 V 0 H 2766 V 531 Q 2569,213 2275,61 1981,-91 1556,-91 q -537,0 -855,302 -317,302 -317,808 0,590 395,890 396,300 1180,300 h 807 v 57 q 0,397 -261,614 -261,217 -733,217 -300,0 -585,-72 -284,-72 -546,-216 v 532 q 315,122 612,182 297,61 578,61 760,0 1135,-394 375,-393 375,-1193 z"
                 id="path2705"
                 transform="scale(0.015625)" />
              <path
                 d="M 3597,1894 V 1613 H 953 q 38,-594 358,-905 320,-311 892,-311 331,0 642,81 311,81 618,244 V 178 Q 3153,47 2828,-22 2503,-91 2169,-91 1331,-91 842,396 353,884 353,1716 q 0,859 464,1363 464,505 1252,505 706,0 1117,-455 411,-454 411,-1235 z m -575,169 q -6,471 -264,752 -258,282 -683,282 -481,0 -770,-272 -289,-272 -333,-766 z"
                 id="path2707"
                 transform="scale(0.015625)" />
              <path
                 d="m 2631,2963 q -97,56 -211,82 -114,27 -251,27 -488,0 -749,-317 -261,-317 -261,-911 V 0 H 581 v 3500 h 578 v -544 q 182,319 472,473 291,155 707,155 59,0 131,-8 72,-7 159,-23 z"
                 id="path2709"
                 transform="scale(0.015625)" />
            </defs>
            <use
               height="100%"
               width="100%"
               y="0"
               x="0"
               xlink:href="#DejaVuSans-57-4"
               id="use2544" />
            <use
               height="100%"
               width="100%"
               y="0"
               x="92.501953"
               xlink:href="#DejaVuSans-61-02"
               id="use2546" />
            <use
               height="100%"
               width="100%"
               y="0"
               x="153.78125"
               xlink:href="#DejaVuSans-74-0"
               id="use2548" />
            <use
               height="100%"
               width="100%"
               y="0"
               x="192.99023"
               xlink:href="#DejaVuSans-65-8"
               id="use2550" />
            <use
               height="100%"
               width="100%"
               y="0"
               x="254.51367"
               xlink:href="#DejaVuSans-72-2"
               id="use2552" />
          </g>
        </g>
        <g
           id="line2d_9">
          <path
             d="m 44.1,60.176563 h 20"
             style="fill:none;stroke:#a1c181;stroke-width:3;stroke-linecap:square"
             id="path2557" />
        </g>
        <g
           id="line2d_10" />
        <g
           id="text_5-3">
          <!-- Diamond -->
          <g
             transform="matrix(0.1,0,0,-0.1,72.1,63.676563)"
             id="g2582">
            <defs
               id="defs2566">
              <path
                 d="M 1259,4147 V 519 h 763 q 966,0 1414,437 448,438 448,1382 0,937 -448,1373 -448,436 -1414,436 z m -631,519 h 1297 q 1356,0 1990,-564 635,-564 635,-1764 Q 4550,1131 3912,565 3275,0 1925,0 H 628 Z"
                 id="path2722"
                 transform="scale(0.015625)" />
              <path
                 d="m 3328,2828 q 216,388 516,572 300,184 706,184 547,0 844,-383 297,-382 297,-1088 V 0 h -578 v 2094 q 0,503 -179,746 -178,244 -543,244 -447,0 -707,-297 -259,-296 -259,-809 V 0 h -578 v 2094 q 0,506 -178,748 -178,242 -550,242 -441,0 -701,-298 -259,-298 -259,-808 V 0 H 581 v 3500 h 578 v -544 q 197,322 472,475 275,153 653,153 382,0 649,-194 267,-193 395,-562 z"
                 id="path2724"
                 transform="scale(0.015625)" />
              <path
                 d="m 1959,3097 q -462,0 -731,-361 -269,-361 -269,-989 0,-628 267,-989 268,-361 733,-361 460,0 728,362 269,363 269,988 0,622 -269,986 -268,364 -728,364 z m 0,487 q 750,0 1178,-488 429,-487 429,-1349 Q 3566,888 3137,398 2709,-91 1959,-91 1206,-91 779,398 353,888 353,1747 q 0,862 426,1349 427,488 1180,488 z"
                 id="path2726"
                 transform="scale(0.015625)" />
              <path
                 d="M 3513,2113 V 0 h -575 v 2094 q 0,497 -194,743 -194,247 -581,247 -466,0 -735,-297 -269,-296 -269,-809 V 0 H 581 v 3500 h 578 v -544 q 207,316 486,472 280,156 646,156 603,0 912,-373 310,-373 310,-1098 z"
                 id="path2728"
                 transform="scale(0.015625)" />
              <path
                 d="m 2906,2969 v 1894 h 575 V 0 H 2906 V 525 Q 2725,213 2448,61 2172,-91 1784,-91 1150,-91 751,415 353,922 353,1747 q 0,825 398,1331 399,506 1033,506 388,0 664,-152 277,-151 458,-463 z M 947,1747 q 0,-634 261,-995 261,-361 717,-361 456,0 718,361 263,361 263,995 0,634 -263,995 -262,361 -718,361 -456,0 -717,-361 -261,-361 -261,-995 z"
                 id="path2730"
                 transform="scale(0.015625)" />
            </defs>
            <use
               height="100%"
               width="100%"
               y="0"
               x="0"
               xlink:href="#DejaVuSans-44-31"
               id="use2568" />
            <use
               height="100%"
               width="100%"
               y="0"
               x="77.001953"
               xlink:href="#DejaVuSans-69-3"
               id="use2570" />
            <use
               height="100%"
               width="100%"
               y="0"
               x="104.78516"
               xlink:href="#DejaVuSans-61-02"
               id="use2572" />
            <use
               height="100%"
               width="100%"
               y="0"
               x="166.06445"
               xlink:href="#DejaVuSans-6d-4"
               id="use2574" />
            <use
               height="100%"
               width="100%"
               y="0"
               x="263.47656"
               xlink:href="#DejaVuSans-6f-4"
               id="use2576" />
            <use
               height="100%"
               width="100%"
               y="0"
               x="324.6582"
               xlink:href="#DejaVuSans-6e-4"
               id="use2578" />
            <use
               height="100%"
               width="100%"
               y="0"
               x="388.03711"
               xlink:href="#DejaVuSans-64-4"
               id="use2580" />
          </g>
        </g>
      </g>
      <g
         id="PathCollection_1"
         transform="matrix(0.35277777,0,0,0.35277777,8.8153322,8.7810382)">
        <defs
           id="defs2587">
          <path
             d="m 0,4.1833 c 1.109424,0 2.173559,-0.440779 2.95804,-1.22526 C 3.742521,2.173559 4.1833,1.109424 4.1833,0 4.1833,-1.109424 3.742521,-2.173559 2.95804,-2.95804 2.173559,-3.742521 1.109424,-4.1833 0,-4.1833 c -1.109424,0 -2.173559,0.440779 -2.95804,1.22526 C -3.742521,-2.173559 -4.1833,-1.109424 -4.1833,0 c 0,1.109424 0.440779,2.173559 1.22526,2.95804 C -2.173559,3.742521 -1.109424,4.1833 0,4.1833 Z"
             id="path2743"
             style="stroke:#808080" />
        </defs>
        <g
           clip-path="url(#pa32517912d)"
           id="g2591">
          <use
             height="100%"
             width="100%"
             style="fill:#808080;fill-opacity:0.498645;stroke:#808080"
             x="112.55479"
             xlink:href="#me3597370a6"
             y="101.7148"
             id="use2589" />
        </g>
      </g>
      <g
         style="fill:#808080;fill-opacity:0.466125"
         id="PathCollection_2"
         transform="matrix(0.35277777,0,0,0.35277777,8.8153322,8.7810382)">
        <g
           style="fill:#808080;fill-opacity:0.466125"
           clip-path="url(#pa32517912d)"
           id="g2596">
          <use
             height="100%"
             width="100%"
             style="fill:#808080;fill-opacity:0.466125;stroke:#808080"
             x="112.55479"
             xlink:href="#me3597370a6"
             y="134.70506"
             id="use2594" />
        </g>
      </g>
      <g
         id="PathCollection_3"
         transform="matrix(0.35277777,0,0,0.35277777,8.8153322,8.7810382)">
        <g
           clip-path="url(#pa32517912d)"
           id="g2601">
          <use
             height="100%"
             width="100%"
             style="fill:#808080;fill-opacity:0.509485;stroke:none"
             x="182.98956"
             xlink:href="#me3597370a6"
             y="84.077209"
             id="use2599" />
        </g>
      </g>
      <text
         transform="matrix(0.35277777,0,0,0.35277777,2.5700378,-45.631828)"
         style="font-size:12px;line-height:125%;font-family:'Times New Roman';-inkscape-font-specification:'Times New Roman, ';letter-spacing:0px;word-spacing:0px;white-space:pre;shape-inside:url(#rect3267);fill:none;stroke:#000000;stroke-width:0.75px;stroke-linecap:butt;stroke-linejoin:miter;stroke-opacity:1;"
         id="text3265"
         xml:space="preserve"><tspan
           x="71.867188"
           y="386.11398"><tspan
             style="font-style:normal;font-variant:normal;font-weight:normal;font-stretch:normal;font-size:12px;font-family:sans-serif;-inkscape-font-specification:sans-serif;fill:#808080;fill-opacity:0.466125;stroke:none;stroke-linecap:butt;stroke-linejoin:round">1st unit</tspan></tspan></text>
      <text
         xml:space="preserve"
         id="text3265-3"
         style="font-size:12px;line-height:125%;font-family:'Times New Roman';-inkscape-font-specification:'Times New Roman, ';letter-spacing:0px;word-spacing:0px;white-space:pre;shape-inside:url(#rect3267-9);fill:none;stroke:#000000;stroke-width:0.75px;stroke-linecap:butt;stroke-linejoin:miter;stroke-opacity:1;"
         transform="matrix(0.35277777,0,0,0.35277777,26.685786,-45.572918)"><tspan
           x="71.867188"
           y="386.11398"><tspan
             style="font-style:normal;font-variant:normal;font-weight:normal;font-stretch:normal;font-size:12px;font-family:sans-serif;-inkscape-font-specification:sans-serif;fill:#808080;fill-opacity:0.466125;stroke:none;stroke-linecap:butt;stroke-linejoin:round">2nd unit</tspan></tspan></text>
    </g>
    <text
       xml:space="preserve"
       id="text3300"
       style="font-size:20px;line-height:125%;font-family:'Times New Roman';-inkscape-font-specification:'Times New Roman, ';letter-spacing:0px;word-spacing:0px;white-space:pre;shape-inside:url(#rect3302);fill:#000000;fill-opacity:1;stroke:none;stroke-width:0.75px;stroke-linecap:butt;stroke-linejoin:miter;stroke-opacity:1;"
       transform="matrix(0.35277777,0,0,0.35277777,8.2396532,9.8808438)"><tspan
         x="-13.861328"
         y="2.256372"><tspan
           style="font-style:normal;font-variant:normal;font-weight:bold;font-stretch:normal;font-size:20px;font-family:sans-serif;-inkscape-font-specification:'sans-serif Bold';stroke-linecap:butt;stroke-linejoin:round">A</tspan></tspan></text>
    <text
       transform="matrix(0.35277777,0,0,0.35277777,109.12441,9.8808438)"
       style="font-size:20px;line-height:125%;font-family:'Times New Roman';-inkscape-font-specification:'Times New Roman, ';letter-spacing:0px;word-spacing:0px;white-space:pre;shape-inside:url(#rect3302-0);fill:#000000;fill-opacity:1;stroke:none;stroke-width:0.75px;stroke-linecap:butt;stroke-linejoin:miter;stroke-opacity:1;"
       id="text3300-5"
       xml:space="preserve"><tspan
         x="-13.861328"
         y="2.256372"><tspan
           style="font-style:normal;font-variant:normal;font-weight:bold;font-stretch:normal;font-family:sans-serif;-inkscape-font-specification:'sans-serif Bold';stroke-linecap:butt;stroke-linejoin:round">B</tspan></tspan></text>
    <g
       transform="translate(-4.7625002)"
       id="g3430">
      <g
         id="patch_2"
         transform="matrix(0.35277777,0,0,0.35277777,107.87533,8.7810382)">
        <path
           d="M 35.1,240.3 H 252.72 V 32.4 H 35.1 Z"
           style="fill:#ffffff"
           id="path2145" />
      </g>
      <g
         id="matplotlib.axis_1"
         transform="matrix(0.35277777,0,0,0.35277777,107.87533,8.7810382)">
        <g
           id="text_1">
          <!-- $x$ -->
          <g
             transform="matrix(0.1,0,0,-0.1,140.91,251.89844)"
             id="g2153">
            <defs
               id="defs2149">
              <path
                 d="M 3841,3500 2234,1784 3219,0 H 2559 L 1819,1388 531,0 H -166 L 1556,1844 641,3500 h 659 l 672,-1266 1172,1266 z"
                 id="path2329"
                 transform="scale(0.015625)" />
            </defs>
            <use
               height="100%"
               width="100%"
               y="0"
               x="0"
               transform="translate(0,0.3125)"
               xlink:href="#DejaVuSans-Oblique-78-9"
               id="use2151" />
          </g>
        </g>
      </g>
      <g
         id="matplotlib.axis_2"
         transform="matrix(0.35277777,0,0,0.35277777,107.87533,8.7810382)">
        <g
           id="text_2">
          <!-- $mu(x)$ -->
          <g
             transform="matrix(0,-0.1,-0.1,0,29.020312,151.25)"
             id="g2173">
            <defs
               id="defs2161">
              <path
                 d="M 5747,2113 5338,0 h -575 l 403,2094 q 25,134 37,231 13,97 13,166 0,281 -157,437 -156,156 -437,156 -419,0 -747,-314 -328,-314 -425,-817 L 3066,0 h -575 l 409,2094 q 25,115 37,213 13,99 13,177 0,285 -156,442 -156,158 -431,158 -425,0 -754,-314 -328,-314 -425,-817 L 800,0 H 225 l 684,3500 h 575 l -109,-544 q 234,307 548,467 315,161 674,161 381,0 626,-200 246,-200 296,-556 262,369 607,562 346,194 730,194 450,0 695,-259 246,-259 246,-734 0,-103 -13,-227 -12,-123 -37,-251 z"
                 id="path2336"
                 transform="scale(0.015625)" />
              <path
                 d="m 428,1388 410,2112 h 578 L 1006,1409 q -31,-153 -45,-262 -14,-109 -14,-181 0,-266 162,-412 163,-145 460,-145 462,0 799,312 338,313 441,842 l 385,1937 h 575 L 3091,0 h -575 l 115,550 Q 2388,244 2052,76 1716,-91 1338,-91 878,-91 622,161 366,413 366,863 q 0,93 15,234 16,141 47,291 z"
                 id="path2338"
                 transform="scale(0.015625)" />
              <path
                 d="m 1984,4856 q -418,-718 -622,-1422 -203,-703 -203,-1425 0,-721 205,-1429 205,-708 620,-1424 h -500 q -468,735 -701,1444 -233,709 -233,1409 0,697 231,1403 232,707 703,1444 z"
                 id="path2340"
                 transform="scale(0.015625)" />
              <path
                 d="m 513,4856 h 500 q 468,-737 701,-1444 233,-706 233,-1403 0,-700 -233,-1409 -233,-709 -701,-1444 H 513 q 415,716 620,1424 205,708 205,1429 0,722 -205,1425 -205,704 -620,1422 z"
                 id="path2342"
                 transform="scale(0.015625)" />
            </defs>
            <use
               height="100%"
               width="100%"
               y="0"
               x="0"
               transform="translate(0,0.125)"
               xlink:href="#DejaVuSans-Oblique-6d-0"
               id="use2163" />
            <use
               height="100%"
               width="100%"
               y="0"
               x="0"
               transform="translate(97.412109,0.125)"
               xlink:href="#DejaVuSans-Oblique-75-7"
               id="use2165" />
            <use
               height="100%"
               width="100%"
               y="0"
               x="0"
               transform="translate(160.79102,0.125)"
               xlink:href="#DejaVuSans-28-2"
               id="use2167" />
            <use
               height="100%"
               width="100%"
               y="0"
               x="0"
               transform="translate(199.80469,0.125)"
               xlink:href="#DejaVuSans-Oblique-78-9"
               id="use2169" />
            <use
               height="100%"
               width="100%"
               y="0"
               x="0"
               transform="translate(258.98437,0.125)"
               xlink:href="#DejaVuSans-29-45"
               id="use2171" />
          </g>
        </g>
      </g>
      <g
         id="line2d_1"
         transform="matrix(0.35277777,0,0,0.35277777,107.87533,8.7810382)">
        <path
           clip-path="url(#p6fd168179c-0)"
           d="m 36.673164,-1 0.0265,31.257517 0.727341,63.915722 0.727341,31.129251 0.727341,18.94977 0.727342,12.90694 0.727341,9.42313 0.727341,7.21521 0.727341,5.72055 0.727341,4.65815 1.454683,7.15145 1.454682,5.25493 1.454682,4.03966 1.454683,3.21125 1.454682,2.61963 1.454683,2.18151 1.454682,1.84744 2.182024,2.2991 2.182023,1.87616 2.182024,1.56275 2.182023,1.32368 2.909365,1.48122 2.909365,1.23389 3.636706,1.28212 4.364047,1.25567 4.364047,1.02872 5.091388,0.98937 6.546071,1.02898 7.273412,0.91364 8.728095,0.87219 10.91012,0.85245 13.09214,0.7873 16.00151,0.73183 20.36555,0.6953 25.45694,0.6361 32.73036,0.58702 26.91162,0.35631 v 0"
           style="fill:none;stroke:#8691bf;stroke-width:3;stroke-linecap:square"
           id="path2177" />
      </g>
      <g
         id="line2d_2"
         transform="matrix(0.35277777,0,0,0.35277777,107.87533,8.7810382)">
        <path
           clip-path="url(#p6fd168179c-0)"
           d="m 35.244983,32.4 0.727342,49.162618 0.727341,59.136692 0.727341,15.3799 0.727341,8.96737 0.727341,6.15051 0.727342,4.58765 0.727341,3.60604 0.727341,2.93882 1.454682,4.56017 1.454683,3.42709 1.454682,2.70513 1.454682,2.21032 1.454683,1.85298 1.454682,1.58454 2.182024,2.00079 2.182023,1.6649 2.182024,1.4154 2.909365,1.59662 2.909364,1.34628 3.636706,1.42116 4.364048,1.42114 4.364047,1.19197 5.091388,1.17575 6.546071,1.26035 7.273412,1.15829 8.728091,1.14783 10.18278,1.09967 11.63746,1.03145 13.81948,1.00304 16.72885,0.98702 20.36555,0.96797 24.7296,0.93901 29.82099,0.8989 23.27492,0.56871 v 0"
           style="fill:none;stroke:#a1c181;stroke-width:3;stroke-linecap:square"
           id="path2180" />
      </g>
      <g
         id="patch_3"
         transform="matrix(0.35277777,0,0,0.35277777,107.87533,8.7810382)">
        <path
           d="M 35.1,240.3 V 32.4"
           style="fill:none;stroke:#000000;stroke-width:0.8;stroke-linecap:square;stroke-linejoin:miter"
           id="path2183" />
      </g>
      <g
         id="patch_4"
         transform="matrix(0.35277777,0,0,0.35277777,107.87533,8.7810382)">
        <path
           d="M 35.1,240.3 H 252.72"
           style="fill:none;stroke:#000000;stroke-width:0.8;stroke-linecap:square;stroke-linejoin:miter"
           id="path2186" />
      </g>
      <g
         id="text_3"
         transform="matrix(0.35277777,0,0,0.35277777,107.87533,8.7810382)">
        <!-- Marginal Utility -->
        <g
           transform="matrix(0.12,0,0,-0.12,98.518125,26.4)"
           id="g2234">
          <defs
             id="defs2200">
            <path
               d="m 628,4666 h 941 L 2759,1491 3956,4666 h 941 V 0 H 4281 V 4097 L 3078,897 H 2444 L 1241,4097 V 0 H 628 Z"
               id="path2361"
               transform="scale(0.015625)" />
            <path
               d="m 2194,1759 q -697,0 -966,-159 -269,-159 -269,-544 0,-306 202,-486 202,-179 548,-179 479,0 768,339 289,339 289,901 v 128 z m 1147,238 V 0 H 2766 V 531 Q 2569,213 2275,61 1981,-91 1556,-91 q -537,0 -855,302 -317,302 -317,808 0,590 395,890 396,300 1180,300 h 807 v 57 q 0,397 -261,614 -261,217 -733,217 -300,0 -585,-72 -284,-72 -546,-216 v 532 q 315,122 612,182 297,61 578,61 760,0 1135,-394 375,-393 375,-1193 z"
               id="path2363"
               transform="scale(0.015625)" />
            <path
               d="m 2631,2963 q -97,56 -211,82 -114,27 -251,27 -488,0 -749,-317 -261,-317 -261,-911 V 0 H 581 v 3500 h 578 v -544 q 182,319 472,473 291,155 707,155 59,0 131,-8 72,-7 159,-23 z"
               id="path2365"
               transform="scale(0.015625)" />
            <path
               d="m 2906,1791 q 0,625 -258,968 -257,344 -723,344 -462,0 -720,-344 -258,-343 -258,-968 0,-622 258,-966 258,-344 720,-344 466,0 723,344 258,344 258,966 z M 3481,434 q 0,-893 -397,-1329 -396,-436 -1215,-436 -303,0 -572,45 -269,45 -522,139 v 559 q 253,-137 500,-202 247,-66 503,-66 566,0 847,295 281,295 281,892 V 616 Q 2728,306 2450,153 2172,0 1784,0 1141,0 747,490 353,981 353,1791 q 0,812 394,1302 394,491 1037,491 388,0 666,-153 278,-153 456,-462 v 531 h 575 z"
               id="path2367"
               transform="scale(0.015625)" />
            <path
               d="m 603,3500 h 575 V 0 H 603 Z m 0,1363 h 575 V 4134 H 603 Z"
               id="path2369"
               transform="scale(0.015625)" />
            <path
               d="M 3513,2113 V 0 h -575 v 2094 q 0,497 -194,743 -194,247 -581,247 -466,0 -735,-297 -269,-296 -269,-809 V 0 H 581 v 3500 h 578 v -544 q 207,316 486,472 280,156 646,156 603,0 912,-373 310,-373 310,-1098 z"
               id="path2371"
               transform="scale(0.015625)" />
            <path
               d="m 603,4863 h 575 V 0 H 603 Z"
               id="path2373"
               transform="scale(0.015625)" />
            <path
               d=""
               id="path2375"
               transform="scale(0.015625)" />
            <path
               d="m 556,4666 h 635 V 1831 q 0,-750 271,-1080 272,-329 882,-329 606,0 878,329 272,330 272,1080 v 2835 h 634 V 1753 Q 4128,841 3676,375 3225,-91 2344,-91 1459,-91 1007,375 556,841 556,1753 Z"
               id="path2377"
               transform="scale(0.015625)" />
            <path
               d="M 1172,4494 V 3500 H 2356 V 3053 H 1172 V 1153 q 0,-428 117,-550 117,-122 477,-122 h 590 V 0 H 1766 Q 1100,0 847,248 594,497 594,1153 V 3053 H 172 v 447 h 422 v 994 z"
               id="path2379"
               transform="scale(0.015625)" />
            <path
               d="m 2059,-325 q -243,-625 -475,-815 -231,-191 -618,-191 H 506 v 481 h 338 q 237,0 368,113 132,112 291,531 L 1606,56 191,3500 H 800 L 1894,763 2988,3500 h 609 z"
               id="path2381"
               transform="scale(0.015625)" />
          </defs>
          <use
             height="100%"
             width="100%"
             y="0"
             x="0"
             xlink:href="#DejaVuSans-4d-7"
             id="use2202" />
          <use
             height="100%"
             width="100%"
             y="0"
             x="86.279297"
             xlink:href="#DejaVuSans-61-0"
             id="use2204" />
          <use
             height="100%"
             width="100%"
             y="0"
             x="147.55859"
             xlink:href="#DejaVuSans-72-7"
             id="use2206" />
          <use
             height="100%"
             width="100%"
             y="0"
             x="186.92188"
             xlink:href="#DejaVuSans-67-9"
             id="use2208" />
          <use
             height="100%"
             width="100%"
             y="0"
             x="250.39844"
             xlink:href="#DejaVuSans-69-6"
             id="use2210" />
          <use
             height="100%"
             width="100%"
             y="0"
             x="278.18164"
             xlink:href="#DejaVuSans-6e-5"
             id="use2212" />
          <use
             height="100%"
             width="100%"
             y="0"
             x="341.56055"
             xlink:href="#DejaVuSans-61-0"
             id="use2214" />
          <use
             height="100%"
             width="100%"
             y="0"
             x="402.83984"
             xlink:href="#DejaVuSans-6c-5"
             id="use2216" />
          <use
             height="100%"
             width="100%"
             y="0"
             x="430.62305"
             xlink:href="#DejaVuSans-20-1"
             id="use2218" />
          <use
             height="100%"
             width="100%"
             y="0"
             x="462.41016"
             xlink:href="#DejaVuSans-55-2"
             id="use2220" />
          <use
             height="100%"
             width="100%"
             y="0"
             x="535.60352"
             xlink:href="#DejaVuSans-74-9"
             id="use2222" />
          <use
             height="100%"
             width="100%"
             y="0"
             x="574.8125"
             xlink:href="#DejaVuSans-69-6"
             id="use2224" />
          <use
             height="100%"
             width="100%"
             y="0"
             x="602.5957"
             xlink:href="#DejaVuSans-6c-5"
             id="use2226" />
          <use
             height="100%"
             width="100%"
             y="0"
             x="630.37891"
             xlink:href="#DejaVuSans-69-6"
             id="use2228" />
          <use
             height="100%"
             width="100%"
             y="0"
             x="658.16211"
             xlink:href="#DejaVuSans-74-9"
             id="use2230" />
          <use
             height="100%"
             width="100%"
             y="0"
             x="697.37109"
             xlink:href="#DejaVuSans-79-4"
             id="use2232" />
        </g>
      </g>
      <g
         id="legend_1"
         transform="matrix(0.35277777,0,0,0.35277777,64.73966,9.1943043)">
        <g
           id="patch_5" />
        <g
           id="line2d_3">
          <path
             d="m 170.56844,45.498438 h 20"
             style="fill:none;stroke:#8691bf;stroke-width:3;stroke-linecap:square"
             id="path2240" />
        </g>
        <g
           id="line2d_4" />
        <g
           id="text_4">
          <!-- Water -->
          <g
             transform="matrix(0.1,0,0,-0.1,198.56844,48.998438)"
             id="g2258">
            <defs
               id="defs2246">
              <path
                 d="m 213,4666 h 637 l 981,-3944 978,3944 h 710 l 981,-3944 978,3944 h 641 L 4947,0 H 4153 L 3169,4050 2175,0 h -794 z"
                 id="path2407"
                 transform="scale(0.015625)" />
              <path
                 d="M 3597,1894 V 1613 H 953 q 38,-594 358,-905 320,-311 892,-311 331,0 642,81 311,81 618,244 V 178 Q 3153,47 2828,-22 2503,-91 2169,-91 1331,-91 842,396 353,884 353,1716 q 0,859 464,1363 464,505 1252,505 706,0 1117,-455 411,-454 411,-1235 z m -575,169 q -6,471 -264,752 -258,282 -683,282 -481,0 -770,-272 -289,-272 -333,-766 z"
                 id="path2409"
                 transform="scale(0.015625)" />
            </defs>
            <use
               height="100%"
               width="100%"
               y="0"
               x="0"
               xlink:href="#DejaVuSans-57-9"
               id="use2248" />
            <use
               height="100%"
               width="100%"
               y="0"
               x="92.501953"
               xlink:href="#DejaVuSans-61-0"
               id="use2250" />
            <use
               height="100%"
               width="100%"
               y="0"
               x="153.78125"
               xlink:href="#DejaVuSans-74-9"
               id="use2252" />
            <use
               height="100%"
               width="100%"
               y="0"
               x="192.99023"
               xlink:href="#DejaVuSans-65-6"
               id="use2254" />
            <use
               height="100%"
               width="100%"
               y="0"
               x="254.51367"
               xlink:href="#DejaVuSans-72-7"
               id="use2256" />
          </g>
        </g>
        <g
           id="line2d_5">
          <path
             d="m 170.56844,60.176563 h 20"
             style="fill:none;stroke:#a1c181;stroke-width:3;stroke-linecap:square"
             id="path2261" />
        </g>
        <g
           id="line2d_6" />
        <g
           id="text_5">
          <!-- Diamond -->
          <g
             transform="matrix(0.1,0,0,-0.1,198.56844,63.676563)"
             id="g2285">
            <defs
               id="defs2269">
              <path
                 d="M 1259,4147 V 519 h 763 q 966,0 1414,437 448,438 448,1382 0,937 -448,1373 -448,436 -1414,436 z m -631,519 h 1297 q 1356,0 1990,-564 635,-564 635,-1764 Q 4550,1131 3912,565 3275,0 1925,0 H 628 Z"
                 id="path2422"
                 transform="scale(0.015625)" />
              <path
                 d="m 3328,2828 q 216,388 516,572 300,184 706,184 547,0 844,-383 297,-382 297,-1088 V 0 h -578 v 2094 q 0,503 -179,746 -178,244 -543,244 -447,0 -707,-297 -259,-296 -259,-809 V 0 h -578 v 2094 q 0,506 -178,748 -178,242 -550,242 -441,0 -701,-298 -259,-298 -259,-808 V 0 H 581 v 3500 h 578 v -544 q 197,322 472,475 275,153 653,153 382,0 649,-194 267,-193 395,-562 z"
                 id="path2424"
                 transform="scale(0.015625)" />
              <path
                 d="m 1959,3097 q -462,0 -731,-361 -269,-361 -269,-989 0,-628 267,-989 268,-361 733,-361 460,0 728,362 269,363 269,988 0,622 -269,986 -268,364 -728,364 z m 0,487 q 750,0 1178,-488 429,-487 429,-1349 Q 3566,888 3137,398 2709,-91 1959,-91 1206,-91 779,398 353,888 353,1747 q 0,862 426,1349 427,488 1180,488 z"
                 id="path2426"
                 transform="scale(0.015625)" />
              <path
                 d="m 2906,2969 v 1894 h 575 V 0 H 2906 V 525 Q 2725,213 2448,61 2172,-91 1784,-91 1150,-91 751,415 353,922 353,1747 q 0,825 398,1331 399,506 1033,506 388,0 664,-152 277,-151 458,-463 z M 947,1747 q 0,-634 261,-995 261,-361 717,-361 456,0 718,361 263,361 263,995 0,634 -263,995 -262,361 -718,361 -456,0 -717,-361 -261,-361 -261,-995 z"
                 id="path2428"
                 transform="scale(0.015625)" />
            </defs>
            <use
               height="100%"
               width="100%"
               y="0"
               x="0"
               xlink:href="#DejaVuSans-44-3"
               id="use2271" />
            <use
               height="100%"
               width="100%"
               y="0"
               x="77.001953"
               xlink:href="#DejaVuSans-69-6"
               id="use2273" />
            <use
               height="100%"
               width="100%"
               y="0"
               x="104.78516"
               xlink:href="#DejaVuSans-61-0"
               id="use2275" />
            <use
               height="100%"
               width="100%"
               y="0"
               x="166.06445"
               xlink:href="#DejaVuSans-6d-1"
               id="use2277" />
            <use
               height="100%"
               width="100%"
               y="0"
               x="263.47656"
               xlink:href="#DejaVuSans-6f-7"
               id="use2279" />
            <use
               height="100%"
               width="100%"
               y="0"
               x="324.6582"
               xlink:href="#DejaVuSans-6e-5"
               id="use2281" />
            <use
               height="100%"
               width="100%"
               y="0"
               x="388.03711"
               xlink:href="#DejaVuSans-64-61"
               id="use2283" />
          </g>
        </g>
      </g>
    </g>
    <path
       transform="matrix(0.35277777,0,0,0.35277777,3.8447091,20.45001)"
       id="path2492-6"
       style="fill:none;stroke:#808080;stroke-width:1.5;stroke-linecap:butt;stroke-linejoin:round;stroke-dasharray:5.55, 2.4;stroke-dashoffset:0;stroke-opacity:0.7"
       d="m 42.12,101.7148 h 70.43478"
       clip-path="url(#pa32517912d-2)" />
  </g>
</svg>
